<svg height="480" viewBox="0 0 380 480" width="380" xmlns="http://www.w3.org/2000/svg"><g fill="none" fill-rule="evenodd"><g transform="translate(122 27)"><path d="m95.7620125 45.2901669c3.4470208 12.70215 7.9391035 41.2536129 3.3552562 45.732299h-29c-.0029614-.051453-.0058649-.1027752-.0087107-.153967-10.7486524-1.1894999-19.108558-10.3027191-19.108558-21.3684989v-21c0-11.8741221 9.6258779-21.5 21.5-21.5h2c10.7832975 0 19.7124503 7.9385375 21.2620125 18.2901669z" fill="#191847"/><path d="m8.26227388 34.4901268c-4.60790953-5.4087509-7.72663909-12.0372497-7.20549755-19.4646729 1.50155389-21.40047447 31.29175427-16.69264276 37.08656507-5.89152098 5.7948107 10.80112178 5.1062366 38.19906288-2.38304 40.12952468-2.9867132.7698654-9.3493002-1.1159967-15.8249294-5.0191516l4.064628 28.755694h-24z" fill="#d4a181" transform="translate(54 31)"/><path d="m68.7499646 61.874834c1.1057774 11.878006.6627699 25.4424309-2.6326959 28.6622929h-29c-1.6157938-28.0736421 14-17.2022712 14-43.6343343.9735842-.9512484 1.8935424-1.8927671 2.8038492-2.7047334l-.0322409-.7773588c5.0216738-10.2804669 11.3925209-15.4207004 19.1125413-15.4207004 11.5800307 0 15.235167 5.3883223 18.3472626 9.9630857-2.3271583 7.9850897-11.3582506 9.169101-19.3829403 14.1464261-.9458867-.7685075-2.1520252-1.2290987-3.4657406-1.2290987-3.0375661 0-5.5 2.4624338-5.5 5.5 0 3.0375661 2.4624339 5.5 5.5 5.5.0837722 0 .1671069-.0018729.2499646-.0055791z" fill="#191847"/></g><g transform="translate(40 214)"><path d="m97.4078252 98.0880741c23.9893478 6.7098499 44.6866328 10.0647749 62.0918528 10.0647749 17.405221 0 33.571995-5.166525 48.500322-15.4995754-23.475759-6.8870505-42.809092-10.3305757-58-10.3305757s-32.721632 5.2551254-52.5921748 15.7653762z" fill="#1f28cf"/><path d="m180.266835 117.824327c-.231314-.347742-.42666-.726016-.581604-1.135775-3.206594-8.480064-54.568346-99.9630184-59.685231-116.688552h57.826087c3.89044 12.7166594 21.400931 92.5197596 23.865233 108.441654 7.775328 25.115065 23.783951 106.453591 25.827583 112.088475 2.149867 5.927803-9.946719 12.103041-13.170174 4.815542-5.129062-11.59564-17.35008-43.680569-22.791594-63.271403-5.101407-18.366365-9.255314-34.889767-11.2903-44.249941z" fill="#ba8b72"/><path d="m132.957062 128.993595c-23.481749 5.934879-109.3730333 16.664089-115.2672694 18.346938-6.06333 1.731127-11.37971028-10.766754-3.8851069-13.474007 11.9251794-4.307697 44.7844463-14.260814 64.7071386-18.322484 16.0246073-3.266962 30.6472577-5.932799 40.4645207-7.493883-.831696-27.5767187-4.633589-93.7566135-2.141658-108.050159h51.165313c-2.389595 13.7065491-22.589888 113.717714-26.3444 123.728549-1.191499 3.573935-4.746681 5.153351-8.698538 5.265046z" fill="#d4a181"/><path d="m2.67813181 25.4019242c-1.11875454 2.9864867-1.67813181 5.2210689-1.67813181 6.7037466 0 1.8032862.3004142 4.4347293.90124261 7.8943292h56.40181219c1.4656832-4.8454927.6196059-7.4614184-2.538232-7.8477768-3.1578378-.3863585-5.7811073-.7352093-7.8698085-1.0465524l-26.2150217-11.6867873c-.5044291-.2248771-1.0956486.0017447-1.3205256.5061738-.003847.0086294-.0075716.0173129-.0111725.0260479l-1.6850814 4.0875898c-2.9233319 1.3639572-5.2988425 2.0459357-7.126532 2.0459357-1.4849542 0-3.53568864-.5997253-6.15220318-1.7991758l.00000547-.0000119c-1.00410066-.4602952-2.19122805-.0194538-2.65152325.9846469-.0198394.0432782-.03812716.087251-.05482833.1318343z" fill="#e4e4e4" transform="matrix(.17364818 .98480775 -.98480775 .17364818 38.899886 123.4904)"/><path d="m2.67813181 25.4019242c-1.11875454 2.9864867-1.67813181 5.2210689-1.67813181 6.7037466 0 1.8032862.3004142 4.4347293.90124261 7.8943292h56.40181219c1.4656832-4.8454927.6196059-7.4614184-2.538232-7.8477768-3.1578378-.3863585-5.7811073-.7352093-7.8698085-1.0465524l-26.2150217-11.6867873c-.5044291-.2248771-1.0956486.0017447-1.3205256.5061738-.003847.0086294-.0075716.0173129-.0111725.0260479l-1.6850814 4.0875898c-2.9233319 1.3639572-5.2988425 2.0459357-7.126532 2.0459357-1.4849542 0-3.53568864-.5997253-6.15220318-1.7991758l.00000547-.0000119c-1.00410066-.4602952-2.19122805-.0194538-2.65152325.9846469-.0198394.0432782-.03812716.087251-.05482833.1318343z" fill="#e4e4e4" transform="translate(208 199)"/><path d="m117 0c22.546839-6.45073907 43.880173-6.45073907 64 0 7 31.9374682 24.00894 44.6134741 27 93.5789257-34 16.8937983-76-12.0484686-111 4.4263853-10-23.0442037 4-78.5407929 20-98.005311z" fill="#2b44ff"/></g><g transform="translate(62 109)"><path d="m192 65.3107899 39.482876-5.3856251c7.898177-4.3931384 15.164117-7.3672162 21.797819-8.9222335 1.866793-.0545048 4.836501.6241223.412459 4.3122655-4.424043 3.6881432-8.912858 7.7679998-8.124627 9.7362974.78823 1.9682977 4.902534 1.2359591 5.584111 4.2633683.454385 2.0182727-6.222879 2.3462219-20.031793.9838476l-32.036971 12.7012899zm-124.0302081 9.1388935 21.8973918.0821797c-24.0110844 54.0338069-36.5308363 82.3250509-37.5592556 84.8737339-2.3139435 5.734536 2.5826721 14.468135 4.6766593 19.161506-6.8200465 3.051767-6.0933633-8.250174-14.6966685-4.247611-7.852698 3.653354-13.8262258 10.272988-22.8988837 4.674879-1.11543-.688254-2.3377595-3.279657.6155432-5.304701 7.3577539-5.045123 17.9607231-13.874998 19.3933513-16.781419 1.9536444-3.963425 11.4775984-31.449614 28.5718622-82.4585676z" fill="#d4a181"/><path d="m123.473568 9.66927317 17.179246-.35646612c7.53584 37.68783415 32.550932 59.72088345 83.13765 47.09513865l11.102885 48.4111863c-47.404276 10.39128-91.132844-5.1256038-104.297571-56.3444835-3.407932-13.2589499-6.394399-27.1064708-7.12221-38.80537533z" fill="#afb9c5" transform="matrix(.9961947 .08715574 -.08715574 .9961947 5.78843 -15.393909)"/><path d="m119.490817.01593955 25.976787 5.94933702c0 44.67914803 14.232421 73.18518243 21.532396 106.03472343h-70.1563459c-.9882746 11.350899-1.5951654 23.017565-1.9114137 35h-52.5306047c11.9037296-63.3360367 37.0284756-112.3360367 75.3742373-147h1.701281z" fill="#c5cfd6"/><path d="m107.912453 48.2592493c-1.80799 27.8412794-.744659 49.0881963 3.189992 63.7407507h-14.2587909c1.9577694-22.4860979 5.4122229-43.7330112 11.0687959-63.74074z" fill="#000" fill-opacity=".1"/></g></g></svg>