<svg height="48" width="48" xmlns="http://www.w3.org/2000/svg" xmlns:xlink="http://www.w3.org/1999/xlink"><linearGradient id="a" gradientTransform="matrix(.8011764 0 0 .8316424 -3.234517 -5.063813)" gradientUnits="userSpaceOnUse" x1="20.156862" x2="20.156862" xlink:href="#k" y1="5.099614" y2="26.039215"/><linearGradient id="b" gradientTransform="matrix(.6806966 0 0 .6977245 -.404664 -.47817)" gradientUnits="userSpaceOnUse" x1="37.878899" x2="37.878899" xlink:href="#i" y1="35.147587" y2="2.118559"/><linearGradient id="c" gradientTransform="matrix(.1271673 0 0 .1311912 6.757616 1.267889)" gradientUnits="userSpaceOnUse" x1="72.67894" x2="72.67894" xlink:href="#g" y1="204.05263" y2="180.04262"/><radialGradient id="d" cx="6.702713" cy="73.615715" gradientTransform="scale(1.902215 .525703)" gradientUnits="userSpaceOnUse" r="7.228416" xlink:href="#e"/><linearGradient id="e"><stop offset="0"/><stop offset="1" stop-opacity="0"/></linearGradient><radialGradient id="f" cx="6.702713" cy="73.615715" gradientTransform="matrix(2.1003693 0 0 .6500511 1.921807 -4.552815)" gradientUnits="userSpaceOnUse" r="7.228416" xlink:href="#e"/><linearGradient id="g"><stop offset="0" stop-color="#dadada"/><stop offset="1" stop-color="#707070"/></linearGradient><linearGradient id="h" gradientTransform="matrix(.1271673 0 0 .1311912 6.757616 16.267889)" gradientUnits="userSpaceOnUse" x1="72.67894" x2="72.67894" xlink:href="#g" y1="204.05263" y2="180.04262"/><linearGradient id="i"><stop offset="0" stop-color="#2f537b"/><stop offset="1" stop-color="#76a7dd"/></linearGradient><linearGradient id="j" gradientTransform="matrix(.6806966 0 0 .6977245 -.404664 14.52183)" gradientUnits="userSpaceOnUse" x1="22.898033" x2="22.898033" xlink:href="#i" y1="35.138676" y2="2.118559"/><linearGradient id="k"><stop offset="0" stop-color="#fff"/><stop offset="1" stop-color="#fff" stop-opacity="0"/></linearGradient><linearGradient id="l" gradientTransform="matrix(.8011764 0 0 .8316424 -3.234517 9.936187)" gradientUnits="userSpaceOnUse" x1="20.156862" x2="20.156862" xlink:href="#k" y1="5.099614" y2="26.039215"/><g transform="translate(16.000043)"><path d="m26.5 38.700001c0 2.098682-6.156085 3.8-13.75 3.8-7.5939153 0-13.75-1.701318-13.75-3.8s6.1560847-3.8 13.75-3.8c7.593915 0 13.75 1.701318 13.75 3.8z" fill="url(#d)" opacity=".4" transform="matrix(1.1041703 0 0 1.2365368 1.921807 -19.552815)"/><g fill-rule="evenodd"><path d="m9.2578693 24.264781s-.9741997 4.308715-.9741997 4.596536c0 .271876-.2192087 1.878812.6729374 1.878812h14.258283c.68203 0 .463894-1.924263.522993-2.075969.057159-.146727-.99589-4.404289-.99589-4.404289z" fill="#b3b3b3" stroke="#4d4d4d" stroke-linecap="round" stroke-linejoin="round" stroke-width=".519741"/><path d="m9.4672719 23.023797s-.7220495 4.094255-.8875038 4.731279c-.1643282.632686-.1278456.744924.6251017.744924h13.6803012c.611572 0 .678324-.224125.575015-.752085-.101023-.516254-.927457-4.72857-.927457-4.72857z" fill="url(#c)" opacity=".4" stroke="#fff" stroke-linecap="round" stroke-linejoin="round"/><path d="m1.3799067.25466062h29.2401423c1.086597-.00896887 1.179442 1.18764378 1.106742 2.01326698 0 7.1125313-.000002 14.2250624-.000002 21.3375914.008858 1.100667-1.172463 1.194712-1.987532 1.121071-9.453117 0-18.906234 0-28.3593503 0-1.08659712.008971-1.17944143-1.187641-1.10674094-2.013265 0-7.112531 0-14.2250623 0-21.3375937-.01436576-.60260441.51163732-1.13557246 1.10674094-1.12107068z" fill="#333" stroke="#1a1a1a" stroke-linecap="round" stroke-linejoin="round" stroke-width=".50874"/><path d="m1.2544863 1.2544867h29.4910257v22.4910263c-9.830341 0-19.660683 0-29.4910257 0 0-7.49701 0-14.9940184 0-22.4910263z" fill="url(#b)" stroke="#000" stroke-linecap="round" stroke-linejoin="round" stroke-width=".508973"/><path d="m1.5913922 1.6154165v14.9760855c13.1749018-1.12625 18.1055338-8.4099155 28.8172078-9.1708968l.000007-5.8312788z" fill="url(#a)" opacity=".4"/></g></g><path d="m31.18232 43.30116c0 2.595098-6.797366 4.69884-15.182342 4.69884-8.3849754 0-15.1823413-2.103742-15.1823413-4.69884 0-2.595097 6.7973659-4.698839 15.1823413-4.698839 8.384976 0 15.182342 2.103742 15.182342 4.698839z" fill="url(#f)" opacity=".4"/><g fill-rule="evenodd"><path d="m9.2578693 39.264781s-.9741997 4.308715-.9741997 4.596536c0 .271876-.2192087 1.878812.6729374 1.878812h14.258283c.68203 0 .463894-1.924263.522993-2.075969.057159-.146727-.99589-4.404289-.99589-4.404289z" fill="#b3b3b3" stroke="#4d4d4d" stroke-linecap="round" stroke-linejoin="round" stroke-width=".519741"/><path d="m9.4672719 38.023797s-.7220495 4.094255-.8875038 4.731279c-.1643282.632686-.1278456.744924.6251017.744924h13.6803012c.611572 0 .678324-.224125.575015-.752085-.101023-.516254-.927457-4.72857-.927457-4.72857z" fill="url(#h)" opacity=".4" stroke="#fff" stroke-linecap="round" stroke-linejoin="round"/><path d="m1.3799067 15.254661h29.2401423c1.086597-.008969 1.179442 1.187643 1.106742 2.013267 0 7.112531-.000002 14.225062-.000002 21.337591.008858 1.100667-1.172463 1.194712-1.987532 1.121071-9.453117 0-18.906234 0-28.3593503 0-1.08659712.008971-1.17944143-1.187641-1.10674094-2.013265 0-7.112531 0-14.225062 0-21.337594-.01436576-.602604.51163732-1.135572 1.10674094-1.12107z" fill="#333" stroke="#1a1a1a" stroke-linecap="round" stroke-linejoin="round" stroke-width=".50874"/><path d="m1.2544863 16.254487h29.4910257v22.491026c-9.830341 0-19.660683 0-29.4910257 0 0-7.49701 0-14.994018 0-22.491026z" fill="url(#j)" stroke="#000" stroke-linecap="round" stroke-linejoin="round" stroke-width=".508973"/><path d="m1.5913922 16.615416v14.976086c13.1749018-1.12625 18.1055338-8.409915 28.8172078-9.170897l.000007-5.831279z" fill="url(#l)" opacity=".4"/></g></svg>